<mxfile host="app.diagrams.net" agent="Mozilla/5.0 (Windows NT 10.0; Win64; x64) AppleWebKit/537.36 (KHTML, like Gecko) Chrome/134.0.0.0 YaBrowser/25.4.0.0 Safari/537.36" version="27.2.0">
  <diagram id="C5RBs43oDa-KdzZeNtuy" name="Page-1">
    <mxGraphModel dx="3120" dy="2518" grid="1" gridSize="10" guides="1" tooltips="1" connect="1" arrows="1" fold="1" page="1" pageScale="1" pageWidth="827" pageHeight="1169" math="0" shadow="0">
      <root>
        <mxCell id="WIyWlLk6GJQsqaUBKTNV-0" />
        <mxCell id="WIyWlLk6GJQsqaUBKTNV-1" parent="WIyWlLk6GJQsqaUBKTNV-0" />
        <mxCell id="GwpRusNXGYXy7guCju_--27" value="" style="endArrow=none;html=1;rounded=0;entryX=1;entryY=0.5;entryDx=0;entryDy=0;exitX=0;exitY=0.5;exitDx=0;exitDy=0;" edge="1" parent="WIyWlLk6GJQsqaUBKTNV-1" source="3eAE0ii-dG_3BCTTobAm-2">
          <mxGeometry width="50" height="50" relative="1" as="geometry">
            <mxPoint x="1270" y="229" as="sourcePoint" />
            <mxPoint x="650" y="229" as="targetPoint" />
          </mxGeometry>
        </mxCell>
        <mxCell id="GwpRusNXGYXy7guCju_--15" value="" style="endArrow=none;html=1;rounded=0;entryX=1;entryY=0.5;entryDx=0;entryDy=0;" edge="1" parent="WIyWlLk6GJQsqaUBKTNV-1">
          <mxGeometry width="50" height="50" relative="1" as="geometry">
            <mxPoint x="570" y="230" as="sourcePoint" />
            <mxPoint x="260" y="229.5" as="targetPoint" />
          </mxGeometry>
        </mxCell>
        <mxCell id="GwpRusNXGYXy7guCju_--13" value="" style="endArrow=none;html=1;rounded=0;entryX=0.5;entryY=1;entryDx=0;entryDy=0;exitX=0.5;exitY=0;exitDx=0;exitDy=0;" edge="1" parent="WIyWlLk6GJQsqaUBKTNV-1" source="3eAE0ii-dG_3BCTTobAm-3" target="3eAE0ii-dG_3BCTTobAm-1">
          <mxGeometry width="50" height="50" relative="1" as="geometry">
            <mxPoint x="420" y="250" as="sourcePoint" />
            <mxPoint x="420" y="100" as="targetPoint" />
          </mxGeometry>
        </mxCell>
        <mxCell id="GwpRusNXGYXy7guCju_--11" value="" style="endArrow=none;html=1;rounded=0;entryX=0.5;entryY=1;entryDx=0;entryDy=0;exitX=0.5;exitY=0;exitDx=0;exitDy=0;" edge="1" parent="WIyWlLk6GJQsqaUBKTNV-1" source="3eAE0ii-dG_3BCTTobAm-5" target="3eAE0ii-dG_3BCTTobAm-4">
          <mxGeometry width="50" height="50" relative="1" as="geometry">
            <mxPoint x="400" y="670" as="sourcePoint" />
            <mxPoint x="400" y="520" as="targetPoint" />
          </mxGeometry>
        </mxCell>
        <mxCell id="GwpRusNXGYXy7guCju_--9" value="" style="endArrow=none;html=1;rounded=0;entryX=0.5;entryY=1;entryDx=0;entryDy=0;exitX=0.5;exitY=0;exitDx=0;exitDy=0;" edge="1" parent="WIyWlLk6GJQsqaUBKTNV-1" source="GwpRusNXGYXy7guCju_--0" target="3eAE0ii-dG_3BCTTobAm-3">
          <mxGeometry width="50" height="50" relative="1" as="geometry">
            <mxPoint x="390" y="490" as="sourcePoint" />
            <mxPoint x="390" y="350" as="targetPoint" />
          </mxGeometry>
        </mxCell>
        <mxCell id="3eAE0ii-dG_3BCTTobAm-1" value="&lt;font style=&quot;font-size: 15px;&quot;&gt;&lt;b&gt;Тип локомотива&lt;/b&gt;&lt;/font&gt;" style="rounded=0;whiteSpace=wrap;html=1;" parent="WIyWlLk6GJQsqaUBKTNV-1" vertex="1">
          <mxGeometry x="135" y="18" width="130" height="40" as="geometry" />
        </mxCell>
        <mxCell id="3eAE0ii-dG_3BCTTobAm-2" value="&lt;font style=&quot;font-size: 15px;&quot;&gt;&lt;b&gt;Поезд&lt;/b&gt;&lt;/font&gt;" style="rounded=0;whiteSpace=wrap;html=1;" parent="WIyWlLk6GJQsqaUBKTNV-1" vertex="1">
          <mxGeometry x="893" y="210" width="120" height="40" as="geometry" />
        </mxCell>
        <mxCell id="3eAE0ii-dG_3BCTTobAm-3" value="&lt;font style=&quot;font-size: 15px;&quot;&gt;&lt;b&gt;Локомотив&lt;/b&gt;&lt;/font&gt;" style="rounded=0;whiteSpace=wrap;html=1;" parent="WIyWlLk6GJQsqaUBKTNV-1" vertex="1">
          <mxGeometry x="140" y="210" width="120" height="40" as="geometry" />
        </mxCell>
        <mxCell id="3eAE0ii-dG_3BCTTobAm-4" value="&lt;font style=&quot;font-size: 15px;&quot;&gt;&lt;b&gt;Станция&lt;/b&gt;&lt;/font&gt;" style="rounded=0;whiteSpace=wrap;html=1;" parent="WIyWlLk6GJQsqaUBKTNV-1" vertex="1">
          <mxGeometry x="140" y="400" width="120" height="40" as="geometry" />
        </mxCell>
        <mxCell id="3eAE0ii-dG_3BCTTobAm-5" value="&lt;font style=&quot;font-size: 15px;&quot;&gt;&lt;b&gt;Участок пути&lt;/b&gt;&lt;/font&gt;" style="rounded=0;whiteSpace=wrap;html=1;" parent="WIyWlLk6GJQsqaUBKTNV-1" vertex="1">
          <mxGeometry x="140" y="630" width="120" height="40" as="geometry" />
        </mxCell>
        <mxCell id="3eAE0ii-dG_3BCTTobAm-6" value="&lt;font style=&quot;font-size: 15px;&quot;&gt;&lt;b&gt;Назначение локомотива&lt;/b&gt;&lt;/font&gt;" style="rounded=0;whiteSpace=wrap;html=1;" parent="WIyWlLk6GJQsqaUBKTNV-1" vertex="1">
          <mxGeometry x="530" y="210" width="120" height="40" as="geometry" />
        </mxCell>
        <mxCell id="GwpRusNXGYXy7guCju_--1" value="следует" style="rhombus;whiteSpace=wrap;html=1;fontSize=15;" vertex="1" parent="WIyWlLk6GJQsqaUBKTNV-1">
          <mxGeometry x="880" y="390" width="146" height="60" as="geometry" />
        </mxCell>
        <mxCell id="GwpRusNXGYXy7guCju_--2" value="использует" style="rhombus;whiteSpace=wrap;html=1;fontSize=15;" vertex="1" parent="WIyWlLk6GJQsqaUBKTNV-1">
          <mxGeometry x="700" y="195" width="146" height="70" as="geometry" />
        </mxCell>
        <mxCell id="GwpRusNXGYXy7guCju_--3" value="соединяет" style="rhombus;whiteSpace=wrap;html=1;fontSize=15;" vertex="1" parent="WIyWlLk6GJQsqaUBKTNV-1">
          <mxGeometry x="127" y="500" width="146" height="70" as="geometry" />
        </mxCell>
        <mxCell id="GwpRusNXGYXy7guCju_--4" value="определяет" style="rhombus;whiteSpace=wrap;html=1;fontSize=15;" vertex="1" parent="WIyWlLk6GJQsqaUBKTNV-1">
          <mxGeometry x="127" y="100" width="146" height="70" as="geometry" />
        </mxCell>
        <mxCell id="GwpRusNXGYXy7guCju_--7" value="" style="endArrow=none;html=1;rounded=0;entryX=0.5;entryY=1;entryDx=0;entryDy=0;exitX=0.5;exitY=0;exitDx=0;exitDy=0;" edge="1" parent="WIyWlLk6GJQsqaUBKTNV-1" source="GwpRusNXGYXy7guCju_--1" target="3eAE0ii-dG_3BCTTobAm-2">
          <mxGeometry width="50" height="50" relative="1" as="geometry">
            <mxPoint x="613" y="390" as="sourcePoint" />
            <mxPoint x="663" y="340" as="targetPoint" />
          </mxGeometry>
        </mxCell>
        <mxCell id="GwpRusNXGYXy7guCju_--8" value="" style="endArrow=none;html=1;rounded=0;entryX=1;entryY=0.5;entryDx=0;entryDy=0;exitX=0;exitY=0.5;exitDx=0;exitDy=0;" edge="1" parent="WIyWlLk6GJQsqaUBKTNV-1" source="GwpRusNXGYXy7guCju_--1" target="3eAE0ii-dG_3BCTTobAm-4">
          <mxGeometry width="50" height="50" relative="1" as="geometry">
            <mxPoint x="400" y="490" as="sourcePoint" />
            <mxPoint x="400" y="350" as="targetPoint" />
          </mxGeometry>
        </mxCell>
        <mxCell id="GwpRusNXGYXy7guCju_--12" value="" style="endArrow=none;html=1;rounded=0;entryX=0.5;entryY=1;entryDx=0;entryDy=0;exitX=0.5;exitY=0;exitDx=0;exitDy=0;" edge="1" parent="WIyWlLk6GJQsqaUBKTNV-1" source="3eAE0ii-dG_3BCTTobAm-4" target="GwpRusNXGYXy7guCju_--0">
          <mxGeometry width="50" height="50" relative="1" as="geometry">
            <mxPoint x="200" y="400" as="sourcePoint" />
            <mxPoint x="200" y="250" as="targetPoint" />
          </mxGeometry>
        </mxCell>
        <mxCell id="GwpRusNXGYXy7guCju_--0" value="находится" style="rhombus;whiteSpace=wrap;html=1;fontSize=15;" vertex="1" parent="WIyWlLk6GJQsqaUBKTNV-1">
          <mxGeometry x="127" y="290" width="146" height="60" as="geometry" />
        </mxCell>
        <mxCell id="GwpRusNXGYXy7guCju_--14" value="содержит" style="rhombus;whiteSpace=wrap;html=1;fontSize=15;" vertex="1" parent="WIyWlLk6GJQsqaUBKTNV-1">
          <mxGeometry x="320" y="200" width="146" height="60" as="geometry" />
        </mxCell>
        <mxCell id="GwpRusNXGYXy7guCju_--17" value="1" style="text;html=1;align=center;verticalAlign=middle;resizable=0;points=[];autosize=1;strokeColor=none;fillColor=none;fontSize=14;" vertex="1" parent="WIyWlLk6GJQsqaUBKTNV-1">
          <mxGeometry x="195" y="368" width="30" height="30" as="geometry" />
        </mxCell>
        <mxCell id="GwpRusNXGYXy7guCju_--18" value="N" style="text;html=1;align=center;verticalAlign=middle;resizable=0;points=[];autosize=1;strokeColor=none;fillColor=none;fontSize=13;" vertex="1" parent="WIyWlLk6GJQsqaUBKTNV-1">
          <mxGeometry x="165" y="260" width="30" height="30" as="geometry" />
        </mxCell>
        <mxCell id="GwpRusNXGYXy7guCju_--19" value="1" style="text;html=1;align=center;verticalAlign=middle;resizable=0;points=[];autosize=1;strokeColor=none;fillColor=none;fontSize=14;" vertex="1" parent="WIyWlLk6GJQsqaUBKTNV-1">
          <mxGeometry x="270" y="230" width="30" height="30" as="geometry" />
        </mxCell>
        <mxCell id="GwpRusNXGYXy7guCju_--20" value="N" style="text;html=1;align=center;verticalAlign=middle;resizable=0;points=[];autosize=1;strokeColor=none;fillColor=none;fontSize=13;" vertex="1" parent="WIyWlLk6GJQsqaUBKTNV-1">
          <mxGeometry x="466" y="230" width="30" height="30" as="geometry" />
        </mxCell>
        <mxCell id="GwpRusNXGYXy7guCju_--21" value="1" style="text;html=1;align=center;verticalAlign=middle;resizable=0;points=[];autosize=1;strokeColor=none;fillColor=none;fontSize=13;" vertex="1" parent="WIyWlLk6GJQsqaUBKTNV-1">
          <mxGeometry x="205" y="58" width="30" height="30" as="geometry" />
        </mxCell>
        <mxCell id="GwpRusNXGYXy7guCju_--22" value="N" style="text;html=1;align=center;verticalAlign=middle;resizable=0;points=[];autosize=1;strokeColor=none;fillColor=none;fontSize=13;" vertex="1" parent="WIyWlLk6GJQsqaUBKTNV-1">
          <mxGeometry x="195" y="180" width="30" height="30" as="geometry" />
        </mxCell>
        <mxCell id="GwpRusNXGYXy7guCju_--23" value="&lt;font style=&quot;font-size: 13px;&quot;&gt;1&lt;/font&gt;" style="text;html=1;align=center;verticalAlign=middle;resizable=0;points=[];autosize=1;strokeColor=none;fillColor=none;" vertex="1" parent="WIyWlLk6GJQsqaUBKTNV-1">
          <mxGeometry x="165" y="440" width="30" height="30" as="geometry" />
        </mxCell>
        <mxCell id="GwpRusNXGYXy7guCju_--24" value="N" style="text;html=1;align=center;verticalAlign=middle;resizable=0;points=[];autosize=1;strokeColor=none;fillColor=none;fontSize=13;" vertex="1" parent="WIyWlLk6GJQsqaUBKTNV-1">
          <mxGeometry x="195" y="600" width="30" height="30" as="geometry" />
        </mxCell>
        <mxCell id="GwpRusNXGYXy7guCju_--25" value="N" style="text;html=1;align=center;verticalAlign=middle;resizable=0;points=[];autosize=1;strokeColor=none;fillColor=none;fontSize=13;" vertex="1" parent="WIyWlLk6GJQsqaUBKTNV-1">
          <mxGeometry x="948" y="248" width="30" height="30" as="geometry" />
        </mxCell>
        <mxCell id="GwpRusNXGYXy7guCju_--26" value="1" style="text;html=1;align=center;verticalAlign=middle;resizable=0;points=[];autosize=1;strokeColor=none;fillColor=none;fontSize=13;" vertex="1" parent="WIyWlLk6GJQsqaUBKTNV-1">
          <mxGeometry x="260" y="420" width="30" height="30" as="geometry" />
        </mxCell>
        <mxCell id="GwpRusNXGYXy7guCju_--28" value="1" style="text;html=1;align=center;verticalAlign=middle;resizable=0;points=[];autosize=1;strokeColor=none;fillColor=none;fontSize=13;" vertex="1" parent="WIyWlLk6GJQsqaUBKTNV-1">
          <mxGeometry x="860" y="230" width="30" height="30" as="geometry" />
        </mxCell>
        <mxCell id="GwpRusNXGYXy7guCju_--29" value="N" style="text;html=1;align=center;verticalAlign=middle;resizable=0;points=[];autosize=1;strokeColor=none;fillColor=none;fontSize=13;" vertex="1" parent="WIyWlLk6GJQsqaUBKTNV-1">
          <mxGeometry x="660" y="200" width="30" height="30" as="geometry" />
        </mxCell>
        <mxCell id="GwpRusNXGYXy7guCju_--30" value="&lt;span style=&quot;font-family: quote-cjk-patch, Inter, system-ui, -apple-system, BlinkMacSystemFont, &amp;quot;Segoe UI&amp;quot;, Roboto, &amp;quot;Noto Sans&amp;quot;, Ubuntu, Cantarell, &amp;quot;Helvetica Neue&amp;quot;, Oxygen, &amp;quot;Open Sans&amp;quot;, sans-serif; text-align: start; background-color: rgb(255, 255, 255);&quot;&gt;&lt;font&gt;&lt;u&gt;Код типа локомотива&lt;/u&gt;&lt;/font&gt;&lt;/span&gt;" style="ellipse;whiteSpace=wrap;html=1;fontSize=13;fontColor=#000000;" vertex="1" parent="WIyWlLk6GJQsqaUBKTNV-1">
          <mxGeometry x="30" y="-80" width="120" height="70" as="geometry" />
        </mxCell>
        <mxCell id="GwpRusNXGYXy7guCju_--31" value="&lt;span style=&quot;font-family: quote-cjk-patch, Inter, system-ui, -apple-system, BlinkMacSystemFont, &amp;quot;Segoe UI&amp;quot;, Roboto, &amp;quot;Noto Sans&amp;quot;, Ubuntu, Cantarell, &amp;quot;Helvetica Neue&amp;quot;, Oxygen, &amp;quot;Open Sans&amp;quot;, sans-serif; text-align: start; background-color: rgb(255, 255, 255);&quot;&gt;Стоимость порожнего пробега (руб/км)&lt;/span&gt;" style="ellipse;whiteSpace=wrap;html=1;fontSize=13;fontColor=#000000;" vertex="1" parent="WIyWlLk6GJQsqaUBKTNV-1">
          <mxGeometry x="263" y="-70" width="150" height="80" as="geometry" />
        </mxCell>
        <mxCell id="GwpRusNXGYXy7guCju_--32" value="&lt;span style=&quot;font-family: quote-cjk-patch, Inter, system-ui, -apple-system, BlinkMacSystemFont, &amp;quot;Segoe UI&amp;quot;, Roboto, &amp;quot;Noto Sans&amp;quot;, Ubuntu, Cantarell, &amp;quot;Helvetica Neue&amp;quot;, Oxygen, &amp;quot;Open Sans&amp;quot;, sans-serif; text-align: start; background-color: rgb(255, 255, 255);&quot;&gt;Стоимость простоя (руб/мин)&lt;/span&gt;" style="ellipse;whiteSpace=wrap;html=1;fontSize=13;fontColor=#000000;" vertex="1" parent="WIyWlLk6GJQsqaUBKTNV-1">
          <mxGeometry x="142.5" y="-130" width="135" height="70" as="geometry" />
        </mxCell>
        <mxCell id="GwpRusNXGYXy7guCju_--33" value="" style="endArrow=none;html=1;rounded=0;entryX=1;entryY=1;entryDx=0;entryDy=0;exitX=0.5;exitY=0;exitDx=0;exitDy=0;" edge="1" parent="WIyWlLk6GJQsqaUBKTNV-1" source="3eAE0ii-dG_3BCTTobAm-1" target="GwpRusNXGYXy7guCju_--30">
          <mxGeometry width="50" height="50" relative="1" as="geometry">
            <mxPoint x="480" y="230" as="sourcePoint" />
            <mxPoint x="530" y="180" as="targetPoint" />
          </mxGeometry>
        </mxCell>
        <mxCell id="GwpRusNXGYXy7guCju_--34" value="" style="endArrow=none;html=1;rounded=0;entryX=0.5;entryY=1;entryDx=0;entryDy=0;" edge="1" parent="WIyWlLk6GJQsqaUBKTNV-1" source="3eAE0ii-dG_3BCTTobAm-1" target="GwpRusNXGYXy7guCju_--32">
          <mxGeometry width="50" height="50" relative="1" as="geometry">
            <mxPoint x="398" y="80" as="sourcePoint" />
            <mxPoint x="330" y="40" as="targetPoint" />
          </mxGeometry>
        </mxCell>
        <mxCell id="GwpRusNXGYXy7guCju_--35" value="" style="endArrow=none;html=1;rounded=0;entryX=0;entryY=1;entryDx=0;entryDy=0;exitX=0.5;exitY=0;exitDx=0;exitDy=0;" edge="1" parent="WIyWlLk6GJQsqaUBKTNV-1" source="3eAE0ii-dG_3BCTTobAm-1" target="GwpRusNXGYXy7guCju_--31">
          <mxGeometry width="50" height="50" relative="1" as="geometry">
            <mxPoint x="520" y="50" as="sourcePoint" />
            <mxPoint x="528" y="-30" as="targetPoint" />
          </mxGeometry>
        </mxCell>
        <mxCell id="GwpRusNXGYXy7guCju_--36" value="" style="endArrow=none;html=1;rounded=0;entryX=0.5;entryY=1;entryDx=0;entryDy=0;exitX=0;exitY=0;exitDx=0;exitDy=0;" edge="1" parent="WIyWlLk6GJQsqaUBKTNV-1" source="GwpRusNXGYXy7guCju_--37" target="3eAE0ii-dG_3BCTTobAm-4">
          <mxGeometry width="50" height="50" relative="1" as="geometry">
            <mxPoint x="478" y="540" as="sourcePoint" />
            <mxPoint x="198" y="450" as="targetPoint" />
          </mxGeometry>
        </mxCell>
        <mxCell id="GwpRusNXGYXy7guCju_--37" value="&lt;span style=&quot;font-family: quote-cjk-patch, Inter, system-ui, -apple-system, BlinkMacSystemFont, &amp;quot;Segoe UI&amp;quot;, Roboto, &amp;quot;Noto Sans&amp;quot;, Ubuntu, Cantarell, &amp;quot;Helvetica Neue&amp;quot;, Oxygen, &amp;quot;Open Sans&amp;quot;, sans-serif; text-align: start; background-color: rgb(255, 255, 255);&quot;&gt;Название&lt;/span&gt;" style="ellipse;whiteSpace=wrap;html=1;fontSize=13;fontColor=#000000;" vertex="1" parent="WIyWlLk6GJQsqaUBKTNV-1">
          <mxGeometry x="220" y="460" width="100" height="40" as="geometry" />
        </mxCell>
        <mxCell id="GwpRusNXGYXy7guCju_--38" value="&lt;span style=&quot;font-family: quote-cjk-patch, Inter, system-ui, -apple-system, BlinkMacSystemFont, &amp;quot;Segoe UI&amp;quot;, Roboto, &amp;quot;Noto Sans&amp;quot;, Ubuntu, Cantarell, &amp;quot;Helvetica Neue&amp;quot;, Oxygen, &amp;quot;Open Sans&amp;quot;, sans-serif; text-align: start; background-color: rgb(255, 255, 255);&quot;&gt;&lt;u&gt;Уникальный идентификатор&lt;/u&gt;&lt;/span&gt;" style="ellipse;whiteSpace=wrap;html=1;fontSize=13;fontColor=#000000;" vertex="1" parent="WIyWlLk6GJQsqaUBKTNV-1">
          <mxGeometry x="25.5" y="460" width="117" height="50" as="geometry" />
        </mxCell>
        <mxCell id="GwpRusNXGYXy7guCju_--39" value="" style="endArrow=none;html=1;rounded=0;entryX=0.5;entryY=1;entryDx=0;entryDy=0;exitX=0.5;exitY=0;exitDx=0;exitDy=0;" edge="1" parent="WIyWlLk6GJQsqaUBKTNV-1" source="GwpRusNXGYXy7guCju_--38" target="3eAE0ii-dG_3BCTTobAm-4">
          <mxGeometry width="50" height="50" relative="1" as="geometry">
            <mxPoint x="605" y="566" as="sourcePoint" />
            <mxPoint x="360" y="550" as="targetPoint" />
          </mxGeometry>
        </mxCell>
        <mxCell id="GwpRusNXGYXy7guCju_--40" value="&lt;span style=&quot;font-family: quote-cjk-patch, Inter, system-ui, -apple-system, BlinkMacSystemFont, &amp;quot;Segoe UI&amp;quot;, Roboto, &amp;quot;Noto Sans&amp;quot;, Ubuntu, Cantarell, &amp;quot;Helvetica Neue&amp;quot;, Oxygen, &amp;quot;Open Sans&amp;quot;, sans-serif; text-align: start; background-color: rgb(255, 255, 255);&quot;&gt;Станция назначения&lt;/span&gt;" style="ellipse;whiteSpace=wrap;html=1;fontSize=13;fontColor=#000000;" vertex="1" parent="WIyWlLk6GJQsqaUBKTNV-1">
          <mxGeometry x="270" y="670" width="107.5" height="50" as="geometry" />
        </mxCell>
        <mxCell id="GwpRusNXGYXy7guCju_--41" value="&lt;span style=&quot;font-family: quote-cjk-patch, Inter, system-ui, -apple-system, BlinkMacSystemFont, &amp;quot;Segoe UI&amp;quot;, Roboto, &amp;quot;Noto Sans&amp;quot;, Ubuntu, Cantarell, &amp;quot;Helvetica Neue&amp;quot;, Oxygen, &amp;quot;Open Sans&amp;quot;, sans-serif; text-align: start; background-color: rgb(255, 255, 255);&quot;&gt;Время в пути&lt;/span&gt;" style="ellipse;whiteSpace=wrap;html=1;fontSize=13;fontColor=#000000;" vertex="1" parent="WIyWlLk6GJQsqaUBKTNV-1">
          <mxGeometry x="195" y="750" width="100" height="40" as="geometry" />
        </mxCell>
        <mxCell id="GwpRusNXGYXy7guCju_--42" value="&lt;span style=&quot;font-family: quote-cjk-patch, Inter, system-ui, -apple-system, BlinkMacSystemFont, &amp;quot;Segoe UI&amp;quot;, Roboto, &amp;quot;Noto Sans&amp;quot;, Ubuntu, Cantarell, &amp;quot;Helvetica Neue&amp;quot;, Oxygen, &amp;quot;Open Sans&amp;quot;, sans-serif; text-align: start; background-color: rgb(255, 255, 255);&quot;&gt;Станция отправления&lt;/span&gt;" style="ellipse;whiteSpace=wrap;html=1;fontSize=13;fontColor=#000000;" vertex="1" parent="WIyWlLk6GJQsqaUBKTNV-1">
          <mxGeometry x="7" y="690" width="120" height="50" as="geometry" />
        </mxCell>
        <mxCell id="GwpRusNXGYXy7guCju_--43" value="&lt;span style=&quot;font-family: quote-cjk-patch, Inter, system-ui, -apple-system, BlinkMacSystemFont, &amp;quot;Segoe UI&amp;quot;, Roboto, &amp;quot;Noto Sans&amp;quot;, Ubuntu, Cantarell, &amp;quot;Helvetica Neue&amp;quot;, Oxygen, &amp;quot;Open Sans&amp;quot;, sans-serif; text-align: start; background-color: rgb(255, 255, 255);&quot;&gt;Расстояние в км&lt;/span&gt;" style="ellipse;whiteSpace=wrap;html=1;fontSize=13;fontColor=#000000;" vertex="1" parent="WIyWlLk6GJQsqaUBKTNV-1">
          <mxGeometry x="80" y="770" width="110" height="50" as="geometry" />
        </mxCell>
        <mxCell id="GwpRusNXGYXy7guCju_--44" value="" style="endArrow=none;html=1;rounded=0;entryX=0.5;entryY=1;entryDx=0;entryDy=0;exitX=0;exitY=0.5;exitDx=0;exitDy=0;" edge="1" parent="WIyWlLk6GJQsqaUBKTNV-1" source="GwpRusNXGYXy7guCju_--40" target="3eAE0ii-dG_3BCTTobAm-5">
          <mxGeometry width="50" height="50" relative="1" as="geometry">
            <mxPoint x="1040" y="680" as="sourcePoint" />
            <mxPoint x="420" y="680" as="targetPoint" />
          </mxGeometry>
        </mxCell>
        <mxCell id="GwpRusNXGYXy7guCju_--45" value="" style="endArrow=none;html=1;rounded=0;entryX=0.5;entryY=1;entryDx=0;entryDy=0;exitX=0.5;exitY=0;exitDx=0;exitDy=0;" edge="1" parent="WIyWlLk6GJQsqaUBKTNV-1" source="GwpRusNXGYXy7guCju_--43" target="3eAE0ii-dG_3BCTTobAm-5">
          <mxGeometry width="50" height="50" relative="1" as="geometry">
            <mxPoint x="440" y="685" as="sourcePoint" />
            <mxPoint x="390" y="640" as="targetPoint" />
          </mxGeometry>
        </mxCell>
        <mxCell id="GwpRusNXGYXy7guCju_--46" value="" style="endArrow=none;html=1;rounded=0;entryX=0.5;entryY=1;entryDx=0;entryDy=0;exitX=0.5;exitY=0;exitDx=0;exitDy=0;" edge="1" parent="WIyWlLk6GJQsqaUBKTNV-1" source="GwpRusNXGYXy7guCju_--41" target="3eAE0ii-dG_3BCTTobAm-5">
          <mxGeometry width="50" height="50" relative="1" as="geometry">
            <mxPoint x="260" y="775" as="sourcePoint" />
            <mxPoint x="210" y="730" as="targetPoint" />
          </mxGeometry>
        </mxCell>
        <mxCell id="GwpRusNXGYXy7guCju_--47" value="" style="endArrow=none;html=1;rounded=0;entryX=0.5;entryY=1;entryDx=0;entryDy=0;exitX=1;exitY=0;exitDx=0;exitDy=0;" edge="1" parent="WIyWlLk6GJQsqaUBKTNV-1" source="GwpRusNXGYXy7guCju_--42" target="3eAE0ii-dG_3BCTTobAm-5">
          <mxGeometry width="50" height="50" relative="1" as="geometry">
            <mxPoint x="200" y="755" as="sourcePoint" />
            <mxPoint x="150" y="710" as="targetPoint" />
          </mxGeometry>
        </mxCell>
        <mxCell id="GwpRusNXGYXy7guCju_--48" value="&lt;span style=&quot;font-family: quote-cjk-patch, Inter, system-ui, -apple-system, BlinkMacSystemFont, &amp;quot;Segoe UI&amp;quot;, Roboto, &amp;quot;Noto Sans&amp;quot;, Ubuntu, Cantarell, &amp;quot;Helvetica Neue&amp;quot;, Oxygen, &amp;quot;Open Sans&amp;quot;, sans-serif; text-align: start; background-color: rgb(255, 255, 255);&quot;&gt;&lt;u&gt;Номер поезда&lt;/u&gt;&lt;/span&gt;" style="ellipse;whiteSpace=wrap;html=1;fontSize=13;fontColor=#000000;" vertex="1" parent="WIyWlLk6GJQsqaUBKTNV-1">
          <mxGeometry x="820" y="138" width="100" height="50" as="geometry" />
        </mxCell>
        <mxCell id="GwpRusNXGYXy7guCju_--49" value="&lt;span style=&quot;font-family: quote-cjk-patch, Inter, system-ui, -apple-system, BlinkMacSystemFont, &amp;quot;Segoe UI&amp;quot;, Roboto, &amp;quot;Noto Sans&amp;quot;, Ubuntu, Cantarell, &amp;quot;Helvetica Neue&amp;quot;, Oxygen, &amp;quot;Open Sans&amp;quot;, sans-serif; text-align: start; background-color: rgb(255, 255, 255);&quot;&gt;Станция отправления&lt;/span&gt;" style="ellipse;whiteSpace=wrap;html=1;fontSize=13;fontColor=#000000;" vertex="1" parent="WIyWlLk6GJQsqaUBKTNV-1">
          <mxGeometry x="846" y="60" width="107" height="58" as="geometry" />
        </mxCell>
        <mxCell id="GwpRusNXGYXy7guCju_--50" value="&lt;span style=&quot;font-family: quote-cjk-patch, Inter, system-ui, -apple-system, BlinkMacSystemFont, &amp;quot;Segoe UI&amp;quot;, Roboto, &amp;quot;Noto Sans&amp;quot;, Ubuntu, Cantarell, &amp;quot;Helvetica Neue&amp;quot;, Oxygen, &amp;quot;Open Sans&amp;quot;, sans-serif; text-align: start; background-color: rgb(255, 255, 255);&quot;&gt;Станция назначения&lt;/span&gt;" style="ellipse;whiteSpace=wrap;html=1;fontSize=13;fontColor=#000000;" vertex="1" parent="WIyWlLk6GJQsqaUBKTNV-1">
          <mxGeometry x="1026" y="58" width="110" height="50" as="geometry" />
        </mxCell>
        <mxCell id="GwpRusNXGYXy7guCju_--51" value="&lt;div style=&quot;text-align: start;&quot;&gt;&lt;span style=&quot;background-color: transparent;&quot;&gt;&lt;font face=&quot;quote-cjk-patch, Inter, system-ui, -apple-system, BlinkMacSystemFont, Segoe UI, Roboto, Noto Sans, Ubuntu, Cantarell, Helvetica Neue, Oxygen, Open Sans, sans-serif&quot;&gt;Время отправления&lt;/font&gt;&lt;/span&gt;&lt;/div&gt;" style="ellipse;whiteSpace=wrap;html=1;fontSize=13;fontColor=#000000;" vertex="1" parent="WIyWlLk6GJQsqaUBKTNV-1">
          <mxGeometry x="1040" y="118" width="150" height="50" as="geometry" />
        </mxCell>
        <mxCell id="GwpRusNXGYXy7guCju_--52" value="&lt;div style=&quot;text-align: start;&quot;&gt;&lt;font face=&quot;quote-cjk-patch, Inter, system-ui, -apple-system, BlinkMacSystemFont, Segoe UI, Roboto, Noto Sans, Ubuntu, Cantarell, Helvetica Neue, Oxygen, Open Sans, sans-serif&quot;&gt;Время прибытия&lt;/font&gt;&lt;/div&gt;" style="ellipse;whiteSpace=wrap;html=1;fontSize=13;fontColor=#000000;" vertex="1" parent="WIyWlLk6GJQsqaUBKTNV-1">
          <mxGeometry x="1050" y="188" width="150" height="50" as="geometry" />
        </mxCell>
        <mxCell id="GwpRusNXGYXy7guCju_--53" value="&lt;div style=&quot;&quot;&gt;&lt;font face=&quot;quote-cjk-patch, Inter, system-ui, -apple-system, BlinkMacSystemFont, Segoe UI, Roboto, Noto Sans, Ubuntu, Cantarell, Helvetica Neue, Oxygen, Open Sans, sans-serif&quot;&gt;Требуемый тип локомотива&lt;/font&gt;&lt;/div&gt;" style="ellipse;whiteSpace=wrap;html=1;fontSize=13;fontColor=#000000;align=center;" vertex="1" parent="WIyWlLk6GJQsqaUBKTNV-1">
          <mxGeometry x="948" y="-30" width="109" height="65" as="geometry" />
        </mxCell>
        <mxCell id="GwpRusNXGYXy7guCju_--55" value="" style="endArrow=none;html=1;rounded=0;entryX=0.5;entryY=0;entryDx=0;entryDy=0;exitX=1;exitY=0.5;exitDx=0;exitDy=0;" edge="1" parent="WIyWlLk6GJQsqaUBKTNV-1" source="GwpRusNXGYXy7guCju_--48" target="3eAE0ii-dG_3BCTTobAm-2">
          <mxGeometry width="50" height="50" relative="1" as="geometry">
            <mxPoint x="1670" y="430" as="sourcePoint" />
            <mxPoint x="1050" y="430" as="targetPoint" />
          </mxGeometry>
        </mxCell>
        <mxCell id="GwpRusNXGYXy7guCju_--56" value="" style="endArrow=none;html=1;rounded=0;exitX=0.5;exitY=1;exitDx=0;exitDy=0;entryX=0.5;entryY=0;entryDx=0;entryDy=0;" edge="1" parent="WIyWlLk6GJQsqaUBKTNV-1" source="GwpRusNXGYXy7guCju_--53" target="3eAE0ii-dG_3BCTTobAm-2">
          <mxGeometry width="50" height="50" relative="1" as="geometry">
            <mxPoint x="970" y="120" as="sourcePoint" />
            <mxPoint x="1003" y="167" as="targetPoint" />
          </mxGeometry>
        </mxCell>
        <mxCell id="GwpRusNXGYXy7guCju_--57" value="" style="endArrow=none;html=1;rounded=0;entryX=0.5;entryY=0;entryDx=0;entryDy=0;exitX=0.659;exitY=0.972;exitDx=0;exitDy=0;exitPerimeter=0;" edge="1" parent="WIyWlLk6GJQsqaUBKTNV-1" source="GwpRusNXGYXy7guCju_--49" target="3eAE0ii-dG_3BCTTobAm-2">
          <mxGeometry width="50" height="50" relative="1" as="geometry">
            <mxPoint x="1000" y="160" as="sourcePoint" />
            <mxPoint x="1033" y="207" as="targetPoint" />
          </mxGeometry>
        </mxCell>
        <mxCell id="GwpRusNXGYXy7guCju_--59" value="" style="endArrow=none;html=1;rounded=0;entryX=0.5;entryY=0;entryDx=0;entryDy=0;exitX=0;exitY=1;exitDx=0;exitDy=0;" edge="1" parent="WIyWlLk6GJQsqaUBKTNV-1" source="GwpRusNXGYXy7guCju_--50" target="3eAE0ii-dG_3BCTTobAm-2">
          <mxGeometry width="50" height="50" relative="1" as="geometry">
            <mxPoint x="1000" y="160" as="sourcePoint" />
            <mxPoint x="1033" y="207" as="targetPoint" />
          </mxGeometry>
        </mxCell>
        <mxCell id="GwpRusNXGYXy7guCju_--60" value="" style="endArrow=none;html=1;rounded=0;entryX=0.5;entryY=0;entryDx=0;entryDy=0;" edge="1" parent="WIyWlLk6GJQsqaUBKTNV-1" source="GwpRusNXGYXy7guCju_--51" target="3eAE0ii-dG_3BCTTobAm-2">
          <mxGeometry width="50" height="50" relative="1" as="geometry">
            <mxPoint x="1090" y="190" as="sourcePoint" />
            <mxPoint x="1040" y="365" as="targetPoint" />
          </mxGeometry>
        </mxCell>
        <mxCell id="GwpRusNXGYXy7guCju_--61" value="" style="endArrow=none;html=1;rounded=0;exitX=0;exitY=0;exitDx=0;exitDy=0;entryX=0.5;entryY=0;entryDx=0;entryDy=0;" edge="1" parent="WIyWlLk6GJQsqaUBKTNV-1" source="GwpRusNXGYXy7guCju_--52" target="3eAE0ii-dG_3BCTTobAm-2">
          <mxGeometry width="50" height="50" relative="1" as="geometry">
            <mxPoint x="1130" y="320" as="sourcePoint" />
            <mxPoint x="1080" y="495" as="targetPoint" />
          </mxGeometry>
        </mxCell>
        <mxCell id="GwpRusNXGYXy7guCju_--62" value="&lt;span style=&quot;font-family: quote-cjk-patch, Inter, system-ui, -apple-system, BlinkMacSystemFont, &amp;quot;Segoe UI&amp;quot;, Roboto, &amp;quot;Noto Sans&amp;quot;, Ubuntu, Cantarell, &amp;quot;Helvetica Neue&amp;quot;, Oxygen, &amp;quot;Open Sans&amp;quot;, sans-serif; text-align: start; background-color: rgb(255, 255, 255);&quot;&gt;ID поезда&lt;/span&gt;" style="ellipse;whiteSpace=wrap;html=1;fontSize=13;fontColor=#000000;" vertex="1" parent="WIyWlLk6GJQsqaUBKTNV-1">
          <mxGeometry x="413" y="58" width="107" height="32" as="geometry" />
        </mxCell>
        <mxCell id="GwpRusNXGYXy7guCju_--63" value="&lt;span style=&quot;font-family: quote-cjk-patch, Inter, system-ui, -apple-system, BlinkMacSystemFont, &amp;quot;Segoe UI&amp;quot;, Roboto, &amp;quot;Noto Sans&amp;quot;, Ubuntu, Cantarell, &amp;quot;Helvetica Neue&amp;quot;, Oxygen, &amp;quot;Open Sans&amp;quot;, sans-serif; text-align: start; background-color: rgb(255, 255, 255);&quot;&gt;Время начала&lt;/span&gt;" style="ellipse;whiteSpace=wrap;html=1;fontSize=13;fontColor=#000000;" vertex="1" parent="WIyWlLk6GJQsqaUBKTNV-1">
          <mxGeometry x="610" y="60" width="107" height="48" as="geometry" />
        </mxCell>
        <mxCell id="GwpRusNXGYXy7guCju_--64" value="&lt;span style=&quot;font-family: quote-cjk-patch, Inter, system-ui, -apple-system, BlinkMacSystemFont, &amp;quot;Segoe UI&amp;quot;, Roboto, &amp;quot;Noto Sans&amp;quot;, Ubuntu, Cantarell, &amp;quot;Helvetica Neue&amp;quot;, Oxygen, &amp;quot;Open Sans&amp;quot;, sans-serif; text-align: start; background-color: rgb(255, 255, 255);&quot;&gt;ID локомотива&lt;/span&gt;" style="ellipse;whiteSpace=wrap;html=1;fontSize=13;fontColor=#000000;" vertex="1" parent="WIyWlLk6GJQsqaUBKTNV-1">
          <mxGeometry x="520" y="30" width="107" height="38" as="geometry" />
        </mxCell>
        <mxCell id="GwpRusNXGYXy7guCju_--65" value="&lt;span style=&quot;font-family: quote-cjk-patch, Inter, system-ui, -apple-system, BlinkMacSystemFont, &amp;quot;Segoe UI&amp;quot;, Roboto, &amp;quot;Noto Sans&amp;quot;, Ubuntu, Cantarell, &amp;quot;Helvetica Neue&amp;quot;, Oxygen, &amp;quot;Open Sans&amp;quot;, sans-serif; text-align: start; background-color: rgb(255, 255, 255);&quot;&gt;Время окончания&lt;/span&gt;" style="ellipse;whiteSpace=wrap;html=1;fontSize=13;fontColor=#000000;" vertex="1" parent="WIyWlLk6GJQsqaUBKTNV-1">
          <mxGeometry x="670" y="120" width="90" height="48" as="geometry" />
        </mxCell>
        <mxCell id="GwpRusNXGYXy7guCju_--66" value="&lt;span style=&quot;font-family: quote-cjk-patch, Inter, system-ui, -apple-system, BlinkMacSystemFont, &amp;quot;Segoe UI&amp;quot;, Roboto, &amp;quot;Noto Sans&amp;quot;, Ubuntu, Cantarell, &amp;quot;Helvetica Neue&amp;quot;, Oxygen, &amp;quot;Open Sans&amp;quot;, sans-serif; text-align: start; background-color: rgb(255, 255, 255);&quot;&gt;Порожний пробег&lt;/span&gt;" style="ellipse;whiteSpace=wrap;html=1;fontSize=13;fontColor=#000000;" vertex="1" parent="WIyWlLk6GJQsqaUBKTNV-1">
          <mxGeometry x="418" y="110" width="97" height="50" as="geometry" />
        </mxCell>
        <mxCell id="GwpRusNXGYXy7guCju_--67" value="" style="endArrow=none;html=1;rounded=0;exitX=0.5;exitY=1;exitDx=0;exitDy=0;entryX=0.5;entryY=0;entryDx=0;entryDy=0;" edge="1" parent="WIyWlLk6GJQsqaUBKTNV-1" source="GwpRusNXGYXy7guCju_--64" target="3eAE0ii-dG_3BCTTobAm-6">
          <mxGeometry width="50" height="50" relative="1" as="geometry">
            <mxPoint x="730" y="-30" as="sourcePoint" />
            <mxPoint x="680" y="145" as="targetPoint" />
          </mxGeometry>
        </mxCell>
        <mxCell id="GwpRusNXGYXy7guCju_--68" value="" style="endArrow=none;html=1;rounded=0;exitX=1;exitY=1;exitDx=0;exitDy=0;entryX=0.5;entryY=0;entryDx=0;entryDy=0;" edge="1" parent="WIyWlLk6GJQsqaUBKTNV-1" source="GwpRusNXGYXy7guCju_--62" target="3eAE0ii-dG_3BCTTobAm-6">
          <mxGeometry width="50" height="50" relative="1" as="geometry">
            <mxPoint x="496.0038354882018" y="85.05252442520055" as="sourcePoint" />
            <mxPoint x="500.82" y="335" as="targetPoint" />
          </mxGeometry>
        </mxCell>
        <mxCell id="GwpRusNXGYXy7guCju_--69" value="" style="endArrow=none;html=1;rounded=0;exitX=1;exitY=1;exitDx=0;exitDy=0;entryX=0.5;entryY=0;entryDx=0;entryDy=0;" edge="1" parent="WIyWlLk6GJQsqaUBKTNV-1" source="GwpRusNXGYXy7guCju_--66" target="3eAE0ii-dG_3BCTTobAm-6">
          <mxGeometry width="50" height="50" relative="1" as="geometry">
            <mxPoint x="540" y="180" as="sourcePoint" />
            <mxPoint x="490" y="355" as="targetPoint" />
          </mxGeometry>
        </mxCell>
        <mxCell id="GwpRusNXGYXy7guCju_--70" value="" style="endArrow=none;html=1;rounded=0;exitX=0.421;exitY=1.001;exitDx=0;exitDy=0;entryX=0.5;entryY=0;entryDx=0;entryDy=0;exitPerimeter=0;" edge="1" parent="WIyWlLk6GJQsqaUBKTNV-1" source="GwpRusNXGYXy7guCju_--63" target="3eAE0ii-dG_3BCTTobAm-6">
          <mxGeometry width="50" height="50" relative="1" as="geometry">
            <mxPoint x="660" y="160" as="sourcePoint" />
            <mxPoint x="610" y="335" as="targetPoint" />
          </mxGeometry>
        </mxCell>
        <mxCell id="GwpRusNXGYXy7guCju_--71" value="" style="endArrow=none;html=1;rounded=0;exitX=0;exitY=1;exitDx=0;exitDy=0;entryX=0.5;entryY=0;entryDx=0;entryDy=0;" edge="1" parent="WIyWlLk6GJQsqaUBKTNV-1" source="GwpRusNXGYXy7guCju_--65" target="3eAE0ii-dG_3BCTTobAm-6">
          <mxGeometry width="50" height="50" relative="1" as="geometry">
            <mxPoint x="630" y="330" as="sourcePoint" />
            <mxPoint x="580" y="505" as="targetPoint" />
          </mxGeometry>
        </mxCell>
        <mxCell id="GwpRusNXGYXy7guCju_--72" value="&lt;span style=&quot;font-family: quote-cjk-patch, Inter, system-ui, -apple-system, BlinkMacSystemFont, &amp;quot;Segoe UI&amp;quot;, Roboto, &amp;quot;Noto Sans&amp;quot;, Ubuntu, Cantarell, &amp;quot;Helvetica Neue&amp;quot;, Oxygen, &amp;quot;Open Sans&amp;quot;, sans-serif; text-align: start; background-color: rgb(255, 255, 255);&quot;&gt;Тип локомотива&lt;/span&gt;" style="ellipse;whiteSpace=wrap;html=1;fontSize=13;fontColor=#000000;" vertex="1" parent="WIyWlLk6GJQsqaUBKTNV-1">
          <mxGeometry x="275.25" y="265" width="114.75" height="45" as="geometry" />
        </mxCell>
        <mxCell id="GwpRusNXGYXy7guCju_--73" value="&lt;span style=&quot;font-family: quote-cjk-patch, Inter, system-ui, -apple-system, BlinkMacSystemFont, &amp;quot;Segoe UI&amp;quot;, Roboto, &amp;quot;Noto Sans&amp;quot;, Ubuntu, Cantarell, &amp;quot;Helvetica Neue&amp;quot;, Oxygen, &amp;quot;Open Sans&amp;quot;, sans-serif; text-align: start; background-color: rgb(255, 255, 255);&quot;&gt;Текущее местоположение&lt;/span&gt;" style="ellipse;whiteSpace=wrap;html=1;fontSize=13;fontColor=#000000;" vertex="1" parent="WIyWlLk6GJQsqaUBKTNV-1">
          <mxGeometry x="260.25" y="340" width="139.75" height="50" as="geometry" />
        </mxCell>
        <mxCell id="GwpRusNXGYXy7guCju_--74" value="&lt;span style=&quot;font-family: quote-cjk-patch, Inter, system-ui, -apple-system, BlinkMacSystemFont, &amp;quot;Segoe UI&amp;quot;, Roboto, &amp;quot;Noto Sans&amp;quot;, Ubuntu, Cantarell, &amp;quot;Helvetica Neue&amp;quot;, Oxygen, &amp;quot;Open Sans&amp;quot;, sans-serif; text-align: start; background-color: rgb(255, 255, 255);&quot;&gt;Время освобождения&lt;/span&gt;" style="ellipse;whiteSpace=wrap;html=1;fontSize=13;fontColor=#000000;" vertex="1" parent="WIyWlLk6GJQsqaUBKTNV-1">
          <mxGeometry x="13.5" y="336" width="107" height="58" as="geometry" />
        </mxCell>
        <mxCell id="GwpRusNXGYXy7guCju_--75" value="&lt;span style=&quot;font-family: quote-cjk-patch, Inter, system-ui, -apple-system, BlinkMacSystemFont, &amp;quot;Segoe UI&amp;quot;, Roboto, &amp;quot;Noto Sans&amp;quot;, Ubuntu, Cantarell, &amp;quot;Helvetica Neue&amp;quot;, Oxygen, &amp;quot;Open Sans&amp;quot;, sans-serif; text-align: start; background-color: rgb(255, 255, 255);&quot;&gt;&lt;u&gt;Уникальный идентификатор&lt;/u&gt;&lt;/span&gt;" style="ellipse;whiteSpace=wrap;html=1;fontSize=13;fontColor=#000000;" vertex="1" parent="WIyWlLk6GJQsqaUBKTNV-1">
          <mxGeometry x="-23" y="265" width="117" height="50" as="geometry" />
        </mxCell>
        <mxCell id="GwpRusNXGYXy7guCju_--76" value="" style="endArrow=none;html=1;rounded=0;entryX=0.5;entryY=1;entryDx=0;entryDy=0;exitX=1;exitY=0;exitDx=0;exitDy=0;" edge="1" parent="WIyWlLk6GJQsqaUBKTNV-1" source="GwpRusNXGYXy7guCju_--75" target="3eAE0ii-dG_3BCTTobAm-3">
          <mxGeometry width="50" height="50" relative="1" as="geometry">
            <mxPoint x="930" y="310" as="sourcePoint" />
            <mxPoint x="310" y="310" as="targetPoint" />
          </mxGeometry>
        </mxCell>
        <mxCell id="GwpRusNXGYXy7guCju_--77" value="" style="endArrow=none;html=1;rounded=0;entryX=0.5;entryY=1;entryDx=0;entryDy=0;exitX=0;exitY=0;exitDx=0;exitDy=0;" edge="1" parent="WIyWlLk6GJQsqaUBKTNV-1" source="GwpRusNXGYXy7guCju_--72" target="3eAE0ii-dG_3BCTTobAm-3">
          <mxGeometry width="50" height="50" relative="1" as="geometry">
            <mxPoint x="-70" y="477" as="sourcePoint" />
            <mxPoint x="40" y="420" as="targetPoint" />
          </mxGeometry>
        </mxCell>
        <mxCell id="GwpRusNXGYXy7guCju_--78" value="" style="endArrow=none;html=1;rounded=0;entryX=0.5;entryY=0;entryDx=0;entryDy=0;exitX=0.5;exitY=1;exitDx=0;exitDy=0;" edge="1" parent="WIyWlLk6GJQsqaUBKTNV-1" source="3eAE0ii-dG_3BCTTobAm-3" target="GwpRusNXGYXy7guCju_--73">
          <mxGeometry width="50" height="50" relative="1" as="geometry">
            <mxPoint x="360" y="407" as="sourcePoint" />
            <mxPoint x="470" y="350" as="targetPoint" />
          </mxGeometry>
        </mxCell>
        <mxCell id="GwpRusNXGYXy7guCju_--79" value="" style="endArrow=none;html=1;rounded=0;entryX=0.5;entryY=1;entryDx=0;entryDy=0;exitX=0.5;exitY=0;exitDx=0;exitDy=0;" edge="1" parent="WIyWlLk6GJQsqaUBKTNV-1" source="GwpRusNXGYXy7guCju_--74" target="3eAE0ii-dG_3BCTTobAm-3">
          <mxGeometry width="50" height="50" relative="1" as="geometry">
            <mxPoint x="-110" y="317" as="sourcePoint" />
            <mxPoint y="260" as="targetPoint" />
          </mxGeometry>
        </mxCell>
      </root>
    </mxGraphModel>
  </diagram>
</mxfile>
